<?xml version="1.0" standalone="no"?>
<!DOCTYPE svg PUBLIC "-//W3C//DTD SVG 20010904//EN"
 "http://www.w3.org/TR/2001/REC-SVG-20010904/DTD/svg10.dtd">
<svg version="1.0" xmlns="http://www.w3.org/2000/svg"
 width="16.000000pt" height="16.000000pt" viewBox="0 0 16.000000 16.000000"
 preserveAspectRatio="xMidYMid meet">
<metadata>
Created by potrace 1.11, written by Peter Selinger 2001-2013
</metadata>
<g transform="translate(0.000000,16.000000) scale(0.002000,-0.002000)"
fill="#000000" stroke="none">
<path d="M2730 6557 c0 -28 -22 -49 -165 -158 -216 -165 -327 -264 -793 -714
-74 -70 -250 -292 -418 -525 -197 -273 -306 -450 -324 -527 -6 -29 -36 -99
-65 -156 -81 -157 -162 -462 -186 -702 -10 -104 -10 -139 5 -260 10 -77 22
-160 27 -185 17 -77 90 -233 131 -277 21 -24 38 -52 38 -63 0 -11 10 -26 23
-35 13 -8 39 -35 57 -60 19 -26 50 -56 70 -67 19 -12 58 -42 85 -68 96 -90
201 -141 430 -210 94 -29 150 -40 205 -41 106 -3 250 11 281 27 16 8 54 13 95
11 58 -1 76 3 114 25 25 14 71 34 104 44 39 12 66 28 79 46 14 19 43 35 98 53
43 15 97 41 120 58 56 43 181 129 249 173 30 20 87 57 125 83 39 26 113 72
165 102 133 76 313 222 323 263 5 17 24 47 42 66 19 19 38 47 44 62 7 18 40
47 94 83 75 49 121 98 155 166 2 5 -9 5 -50 0 -4 -1 -9 -10 -13 -20 -3 -11
-27 -29 -53 -41 -104 -49 -131 -65 -136 -85 -3 -13 -43 -46 -101 -83 -95 -62
-133 -77 -121 -46 6 17 -42 -8 -194 -102 -95 -58 -261 -144 -278 -144 -6 0
-27 -15 -46 -34 -23 -23 -56 -41 -101 -55 -59 -18 -135 -28 -135 -17 0 2 -7
19 -15 38 l-14 35 57 28 c31 15 77 41 101 57 24 16 94 54 155 85 61 31 137 73
169 95 32 22 75 47 95 56 20 10 73 45 118 78 44 33 120 82 167 109 48 27 96
59 108 71 l22 23 -37 -19 c-24 -11 -45 -16 -57 -12 -15 6 -31 -3 -65 -35 -25
-23 -91 -65 -147 -94 -56 -28 -117 -63 -136 -77 -18 -13 -61 -38 -94 -55 -60
-30 -61 -30 -74 -10 -13 20 -17 19 -121 -44 -127 -76 -512 -267 -632 -314 -47
-18 -102 -43 -123 -56 -58 -37 -224 -88 -462 -143 -164 -39 -198 -41 -324 -19
-201 34 -219 44 -232 132 -5 30 -18 82 -29 117 -11 34 -20 80 -20 101 0 43 43
284 66 374 9 33 22 91 30 129 9 48 29 97 64 157 28 48 58 111 66 140 9 29 33
86 55 128 22 41 41 87 43 102 3 29 77 133 105 148 12 7 25 35 36 76 18 65 52
115 78 115 23 0 54 43 60 82 4 24 26 64 61 111 89 119 326 390 366 419 21 16
55 53 76 84 92 134 605 558 747 617 34 15 36 14 42 -3 3 -10 16 -21 29 -24 43
-11 49 -48 42 -264 -9 -236 -23 -337 -75 -547 -31 -120 -37 -161 -28 -167 15
-9 51 1 56 16 10 28 80 86 104 86 38 0 68 45 127 194 61 153 78 188 97 199 9
6 13 17 9 31 -3 12 1 47 8 78 7 32 9 62 5 70 -5 7 -9 66 -9 130 0 80 -5 128
-14 150 -8 18 -17 49 -21 68 -9 59 -69 172 -125 235 -29 33 -63 77 -76 97 -58
90 -266 238 -336 238 -15 0 -38 4 -52 10 -23 8 -26 7 -26 -13z"/>
<path d="M6830 6363 c-19 -8 -102 -30 -185 -49 -82 -19 -172 -41 -200 -48
-140 -41 -612 -148 -742 -170 -255 -43 -505 -60 -679 -47 -147 11 -311 42
-430 81 -75 25 -137 76 -169 139 -46 91 -71 91 -117 2 -44 -86 -45 -126 -8
-240 18 -55 40 -108 49 -118 9 -10 28 -34 41 -54 53 -77 128 -158 185 -201 83
-63 168 -101 208 -95 18 3 59 -2 92 -11 54 -14 137 -17 365 -13 19 1 58 0 85
0 28 -1 87 9 133 21 45 12 96 20 112 18 17 -3 54 3 83 13 29 10 68 18 88 19
56 0 192 30 210 46 8 8 23 14 33 14 9 0 65 18 123 40 59 22 108 38 110 36 7
-6 -86 -113 -223 -256 -71 -74 -161 -175 -199 -225 -104 -136 -228 -286 -350
-426 -113 -129 -190 -218 -362 -419 -54 -63 -138 -158 -188 -210 -149 -158
-489 -544 -699 -795 -51 -60 -126 -146 -167 -190 -41 -44 -91 -101 -112 -127
l-37 -46 40 -7 c46 -8 81 9 101 47 7 13 28 42 48 64 79 90 101 120 101 135 0
9 11 21 25 27 14 6 25 16 25 21 0 5 14 22 31 39 17 17 37 41 44 54 6 13 17 22
24 20 6 -1 16 9 21 23 5 14 30 38 54 53 24 15 51 41 59 58 9 18 66 86 127 153
65 71 120 141 132 168 14 32 23 42 28 32 6 -9 23 -1 65 36 47 40 135 141 135
156 0 5 106 121 231 253 52 56 115 126 139 156 24 30 67 80 95 110 27 31 95
106 149 168 55 62 101 110 104 107 7 -7 -21 -44 -92 -120 -36 -38 -66 -77 -66
-85 0 -9 -31 -47 -70 -85 -38 -38 -70 -77 -70 -87 0 -9 -9 -19 -20 -23 -10 -3
-54 -52 -97 -107 -43 -56 -171 -204 -285 -330 -115 -126 -208 -235 -208 -242
0 -7 -46 -58 -102 -114 -111 -110 -178 -187 -178 -204 0 -16 -102 -115 -127
-122 -14 -5 -26 -19 -31 -39 -5 -18 -37 -60 -70 -95 -34 -34 -71 -80 -82 -102
-13 -25 -29 -42 -45 -46 -15 -4 -39 -25 -55 -49 -17 -24 -41 -52 -54 -62 -13
-10 -46 -46 -74 -78 -28 -33 -83 -94 -122 -135 -39 -41 -76 -83 -81 -92 -5
-10 -19 -23 -30 -29 -19 -10 -20 -9 -14 13 4 12 18 32 30 43 13 11 26 32 29
47 4 18 11 25 20 22 10 -4 22 8 34 33 11 21 32 49 46 62 29 27 34 46 11 37 -8
-3 -15 -1 -15 5 0 6 20 19 45 30 25 11 43 24 40 28 -6 11 -62 19 -73 12 -21
-15 -381 -481 -539 -697 -23 -33 -33 -59 -38 -102 -11 -103 -15 -112 -54 -137
-50 -31 -65 -70 -59 -149 5 -51 13 -76 43 -125 51 -82 98 -123 131 -115 13 3
30 1 38 -5 18 -15 61 1 78 29 9 14 23 20 48 20 30 0 37 4 47 30 7 20 20 31 39
35 16 3 36 10 44 15 8 5 59 36 113 70 54 33 104 60 110 60 7 0 29 9 50 20 20
11 52 20 70 20 18 0 42 7 53 15 12 8 77 33 145 56 68 23 140 50 159 59 19 10
78 29 130 44 52 14 141 41 196 60 56 18 120 37 142 41 23 4 53 16 67 27 26 20
56 25 280 47 50 5 121 15 159 21 101 16 296 42 331 44 17 1 47 8 69 15 26 9
62 11 115 7 42 -4 120 -2 173 3 60 6 134 6 190 0 65 -6 107 -5 140 3 38 9 72
8 185 -7 76 -11 161 -19 188 -20 28 0 56 -4 63 -9 26 -16 167 -56 200 -56 18
0 54 -12 79 -27 38 -22 49 -24 65 -14 16 10 33 4 112 -39 110 -59 123 -78 106
-156 -13 -60 -71 -158 -139 -239 -28 -32 -51 -66 -51 -75 0 -47 69 -54 113
-12 26 25 29 26 41 10 12 -16 15 -15 43 15 53 57 96 118 109 155 36 102 -9
391 -85 539 -28 56 -135 152 -216 194 -151 79 -558 181 -778 195 -29 1 -97 8
-152 13 -55 6 -221 11 -370 12 -226 1 -294 -2 -415 -20 -80 -11 -190 -25 -245
-30 -127 -13 -362 -55 -485 -86 -52 -13 -113 -27 -135 -30 -22 -4 -87 -22
-145 -40 -58 -18 -166 -52 -240 -75 -74 -23 -152 -53 -172 -66 -21 -13 -49
-24 -62 -24 -22 0 -181 -76 -213 -102 -27 -22 -11 7 45 80 188 249 412 538
470 605 37 43 73 90 81 105 8 15 75 87 149 160 96 93 142 132 159 132 26 0 27
3 13 30 -8 15 -4 22 25 40 39 24 55 48 55 79 0 14 6 21 19 21 18 0 48 30 145
145 44 52 50 56 57 37 9 -23 29 -39 29 -22 0 6 -4 20 -10 30 -8 15 -1 29 39
77 27 32 59 66 70 76 15 12 20 24 15 41 -4 19 0 28 20 41 26 17 66 13 66 -7 0
-6 -25 -39 -56 -74 -79 -91 -45 -79 49 15 66 68 77 84 71 105 -5 21 -2 25 25
31 21 4 44 23 69 55 20 26 87 101 147 166 61 66 157 177 215 248 58 72 137
166 175 210 39 45 94 115 123 157 29 42 69 92 90 110 20 19 95 98 167 177 71
78 133 142 137 142 5 0 44 34 87 75 64 62 87 92 128 173 27 53 56 113 64 132
20 53 127 221 160 253 16 15 29 32 29 38 0 5 21 33 47 60 46 49 47 51 28 65
-20 15 -20 15 2 54 30 50 14 60 -37 25 -30 -21 -46 -26 -67 -20 -27 6 -27 7
-9 21 11 8 27 14 36 14 16 0 50 29 50 43 0 11 -32 6 -70 -10z"/>
<path d="M3454 3806 c-27 -19 -84 -55 -126 -81 -85 -51 -95 -60 -73 -69 8 -3
46 20 92 58 43 35 100 75 127 88 27 14 45 28 39 31 -5 3 -32 -9 -59 -27z"/>
<path d="M3955 3790 c-3 -5 -1 -10 4 -10 6 0 11 5 11 10 0 6 -2 10 -4 10 -3 0
-8 -4 -11 -10z"/>
<path d="M4847 3729 c-17 -10 -23 -29 -9 -29 5 0 16 6 27 13 22 17 7 29 -18
16z"/>
<path d="M3147 3609 c-63 -44 -70 -61 -14 -34 34 16 99 75 81 74 -5 0 -35 -18
-67 -40z"/>
<path d="M4697 3572 c-18 -20 -23 -52 -8 -52 5 0 16 12 26 26 21 32 6 53 -18
26z"/>
</g>
</svg>
