<?xml version="1.0" encoding="utf-8"?>
<!-- Generator: Adobe Illustrator 21.0.0, SVG Export Plug-In . SVG Version: 6.00 Build 0)  -->
<svg version="1.1" id="Layer_1" xmlns="http://www.w3.org/2000/svg" xmlns:xlink="http://www.w3.org/1999/xlink" x="0px" y="0px"
	 viewBox="0 0 120 40" style="enable-background:new 0 0 120 40;" xml:space="preserve">
<style type="text/css">
	.st0{fill:#1CA352;}
</style>
<g>
	<path class="st0" d="M103,34.5c-2.5,0-4.2-1.2-4.2-3.3v-0.1c0-2.4,2-3.7,5.3-3.7c1.9,0,3.6,0.4,4.9,1v1.4
		C108.9,32.6,106.5,34.5,103,34.5 M100.7,39.8c3.7,0,6.3-1.4,8.1-3.4v2.9h7.4V23.7c0-3.6-0.9-6.6-2.9-8.6c-1.9-1.9-4.9-3-9.1-3
		c-4.6,0-7.5,0.9-10.4,2.2l1.9,5.8c2.5-0.9,4.5-1.5,7.4-1.5c3.8,0,5.8,1.8,5.8,4.9V24c-1.9-0.7-3.9-1.1-6.6-1.1
		c-6.4,0-10.8,2.7-10.8,8.6v0.1C91.4,36.9,95.6,39.8,100.7,39.8 M64.3,39.3h7.6v-15c0-3.6,1.9-5.5,4.8-5.5c2.9,0,4.6,1.9,4.6,5.5v15
		h7.6V21.9c0-6.2-3.4-10-9.1-10c-3.9,0-6.1,2.1-7.9,4.3v-3.8h-7.6V39.3z M42.8,23.7c0.6-3.5,2.7-5.7,5.8-5.7c3.2,0,5.2,2.3,5.7,5.7
		H42.8z M49.4,39.9c4.9,0,8.5-1.9,11-5L56,31c-2.1,2-4,2.8-6.5,2.8c-3.4,0-5.8-1.8-6.6-5.3h18.7c0-0.7,0.1-1.4,0.1-2
		c0-7.6-4.1-14.6-13.1-14.6c-7.8,0-13.3,6.3-13.3,14V26C35.3,34.2,41.3,39.9,49.4,39.9"/>
	<path class="st0" d="M31.3,19.8l-7.7,19.2l7.7,0L31.3,19.8z M0,0v39.1l16.7,0L6.2,12.4h8.1l6,18l6.1-18h5V0L0,0z"/>
</g>
</svg>
